<?xml version="1.0" encoding="UTF-8"?>
<svg width="24px" height="24px" viewBox="0 0 24 24" version="1.1" xmlns="http://www.w3.org/2000/svg" xmlns:xlink="http://www.w3.org/1999/xlink">
    <title>iconShare</title>
    <g id="Assets" stroke="none" stroke-width="1" fill="none" fill-rule="evenodd">
        <g id="icon/Share" transform="translate(12.000000, 12.000000) scale(-1, 1) translate(-12.000000, -12.000000) ">
            <rect id="Bound" x="0" y="0" width="24" height="24"></rect>
            <path d="M20.7032368,10.8249285 L15.0189079,16.0551182 C14.4197368,16.6064641 13.4210526,16.1976951 13.4210526,15.3840416 L13.4210526,12.6162353 C7.71414473,12.653543 5.30660526,13.9667346 6.91677631,19.2067321 C7.09373684,19.7826164 6.40969737,20.2285393 5.92969737,19.8732702 C4.39152631,18.7348093 3,16.5572334 3,14.359196 C3,8.82316021 7.64206579,7.72458382 13.4210526,7.69335306 L13.4210526,4.92354671 C13.4210526,4.10916249 14.4204079,3.70170115 15.0189079,4.25247012 L20.7032368,9.48277527 C21.0987631,9.84673664 21.0990789,10.4606594 20.7032368,10.8249285 Z" id="Mask" fill="#858199" fill-rule="evenodd"></path>
        </g>
    </g>
</svg>