<svg width="24" height="24" viewBox="0 0 24 24" fill="none" xmlns="http://www.w3.org/2000/svg">
<path fill-rule="evenodd" clip-rule="evenodd" d="M2.4 0H21.6C22.9256 0 24 1.07443 24 2.4V21.6C24 22.9256 22.9256 24 21.6 24H2.4C1.07443 24 0 22.9256 0 21.6V2.4C0 1.07443 1.07443 0 2.4 0Z" fill="#010101"/>
<path d="M14.8619 21.4061C15.217 21.4061 15.505 21.1205 15.505 20.7683C15.505 20.4161 15.217 20.1306 14.8619 20.1306C14.5067 20.1306 14.2188 20.4161 14.2188 20.7683C14.2188 21.1205 14.5067 21.4061 14.8619 21.4061Z" fill="#010101"/>
<path fill-rule="evenodd" clip-rule="evenodd" d="M15.9784 9.73056C17.1823 10.5907 18.6572 11.0968 20.25 11.0968V8.03313C19.9485 8.03325 19.6478 8.00181 19.3529 7.9393V10.3509C17.7602 10.3509 16.2855 9.84474 15.0814 8.98464V15.2365C15.0814 18.3641 12.5447 20.8993 9.41577 20.8993C8.24834 20.8993 7.16318 20.5465 6.26172 19.9415C7.29056 20.9929 8.7253 21.6452 10.3126 21.6452C13.4418 21.6452 15.9785 19.11 15.9785 15.9823V9.73056H15.9784ZM17.085 6.63975C16.4698 5.96798 16.0659 5.09974 15.9784 4.13987V3.74585H15.1283C15.3423 4.96576 16.0721 6.00802 17.085 6.63975ZM8.24074 17.5416C7.89704 17.0912 7.71125 16.54 7.71208 15.9734C7.71208 14.543 8.87237 13.3832 10.3038 13.3832C10.5705 13.3831 10.8357 13.424 11.09 13.5046V10.3725C10.7929 10.3318 10.4931 10.3146 10.1933 10.3209V12.7588C9.93888 12.6782 9.6736 12.6373 9.40675 12.6374C7.97531 12.6374 6.81513 13.7972 6.81513 15.2277C6.81513 16.2392 7.39506 17.115 8.24074 17.5416Z" fill="#EE1D52"/>
<path fill-rule="evenodd" clip-rule="evenodd" d="M15.0816 8.98464C16.2857 9.84474 17.7604 10.3509 19.3531 10.3509V7.9393C18.4641 7.7501 17.677 7.28568 17.0852 6.63975C16.0723 6.00802 15.3425 4.96576 15.1285 3.74585H12.8956V15.9822C12.8906 17.4087 11.7323 18.5637 10.3039 18.5637C9.46216 18.5637 8.71438 18.1628 8.24082 17.5416C7.39514 17.115 6.81521 16.2392 6.81521 15.2277C6.81521 13.7972 7.97539 12.6374 9.40683 12.6374C9.68107 12.6374 9.9454 12.6801 10.1933 12.7588V10.3209C7.11936 10.3844 4.64709 12.8948 4.64709 15.9823C4.64709 17.5236 5.26277 18.9208 6.26191 19.9416C7.16336 20.5466 8.24852 20.8994 9.41596 20.8994C12.5449 20.8994 15.0816 18.3641 15.0816 15.2367V8.98464Z" fill="white"/>
<path fill-rule="evenodd" clip-rule="evenodd" d="M19.353 7.93926V7.28717C18.5512 7.28838 17.7653 7.06397 17.0851 6.6396C17.6872 7.29848 18.4801 7.75285 19.353 7.93926ZM15.1284 3.74581C15.1079 3.62923 15.0923 3.51187 15.0814 3.39402V3H11.9983V15.2365C11.9934 16.6629 10.8352 17.8179 9.40669 17.8179C8.98725 17.8179 8.59136 17.7184 8.24068 17.5416C8.71423 18.1627 9.46202 18.5637 10.3037 18.5637C11.732 18.5637 12.8904 17.4087 12.8955 15.9822V3.74581H15.1284ZM10.1933 10.3209V9.62667C9.93568 9.59145 9.67595 9.57384 9.41593 9.57398C6.28662 9.57398 3.75 12.1093 3.75 15.2365C3.75 17.1971 4.74694 18.925 6.26187 19.9414C5.26273 18.9206 4.64706 17.5234 4.64706 15.9822C4.64706 12.8948 7.11922 10.3844 10.1933 10.3209Z" fill="#69C9D0"/>
</svg>
